<?xml version="1.0" encoding="UTF-8" standalone="no"?>
<svg
   xmlns:dc="http://purl.org/dc/elements/1.1/"
   xmlns:cc="http://creativecommons.org/ns#"
   xmlns:rdf="http://www.w3.org/1999/02/22-rdf-syntax-ns#"
   xmlns:svg="http://www.w3.org/2000/svg"
   xmlns="http://www.w3.org/2000/svg"
   id="svg14"
   viewBox="0 0 128 128.00001"
   version="1.1"
   height="128"
   width="128">
  <defs
     id="defs18" />
  <metadata
     id="metadata2">
    <rdf:RDF>
      <cc:Work
         rdf:about="">
        <dc:format>image/svg+xml</dc:format>
        <dc:type
           rdf:resource="http://purl.org/dc/dcmitype/StillImage" />
        <dc:title></dc:title>
      </cc:Work>
    </rdf:RDF>
  </metadata>
  <path
     style="fill:#f6d537;stroke-width:4"
     id="path4"
     d="m 16,28 c -4.432,0 -8,3.568 -8,8 v 56 c 0,4.432 3.568,8 8,8 h 96 c 4.432,0 8,-3.568 8,-8 V 36 c 0,-4.432 -3.568,-8 -8,-8 z" />
  <path
     style="fill:#f8e45c;stroke-width:4"
     id="path6"
     d="M 44,60 10.2264,97.5312 c 1.45432,1.51804 3.49544,2.46876 5.7736,2.46876 h 96 c 2.278,0 4.3192,-0.95072 5.7736,-2.46876 L 84,60 Z" />
  <path
     style="fill:#f5f5f5;stroke-width:4"
     id="path8"
     d="m 16,28 c -2.216,0 -4.218,0.88992 -5.664,2.33592 L 52,71.99992 c 8,8 16,8 24,0 l 41.664,-41.664 C 116.218,28.88992 114.21592,28 112,28 Z" />
  <path
     style="opacity:0.3;fill:#5e5c64;stroke-width:4"
     id="path10"
     d="m 16,28 c -3.25628,0 -6.03,1.93908 -7.2812,4.7188 l 43.28,43.28 c 8,8 16,8 24,0 l 43.28,-43.28 C 118.02776,29.93916 115.254,28 111.9976,28 h -96 z" />
  <path
     style="fill:#f8e45c;stroke-width:4"
     id="path12"
     d="m 16,28 c -2.216,0 -4.218,0.88992 -5.664,2.33592 L 52,71.99992 c 8,8 16,8 24,0 l 41.664,-41.664 C 116.218,28.88992 114.21592,28 112,28 Z" />
</svg>
