<?xml version="1.0" encoding="UTF-8"?>
<svg width="128" height="128" version="1.1" viewBox="0 0 128 128.00001" xmlns="http://www.w3.org/2000/svg">
<path d="m16 28c-4.432 0-8 3.568-8 8v56c0 4.432 3.568 8 8 8h96c4.432 0 8-3.568 8-8v-56c0-4.432-3.568-8-8-8z" fill="#f6d537"/>
<path d="m44 60-33.774 37.531c1.4543 1.518 3.4954 2.4688 5.7736 2.4688h96c2.278 0 4.3192-0.95072 5.7736-2.4688l-33.774-37.531z" fill="#f8e45c"/>
<path d="m16 28c-2.216 0-4.218 0.88992-5.664 2.3359l41.664 41.664c8 8 16 8 24 0l41.664-41.664c-1.446-1.446-3.4481-2.3359-5.664-2.3359z" fill="#f5f5f5"/>
<path d="m16 28c-3.2563 0-6.03 1.9391-7.2812 4.7188l43.28 43.28c8 8 16 8 24 0l43.28-43.28c-1.251-2.7796-4.0248-4.7188-7.2812-4.7188h-96z" fill="#5e5c64" opacity=".3"/>
<path d="m16 28c-2.216 0-4.218 0.88992-5.664 2.3359l41.664 41.664c8 8 16 8 24 0l41.664-41.664c-1.446-1.446-3.4481-2.3359-5.664-2.3359z" fill="#f8e45c"/>
</svg>
